PathFileType	3	(X/Y/Z)	walking_3__view2_aligned.trc
DataRate	CameraRate	NumFrames	NumMarkers	Units	OrigDataRate	OrigDataStartFrame	OrigNumFrames
100.0	100.0	18	19	mm	100.0	4204	6318
Frame#	Time	pelvis			neck			head			hip_left			hip_right			knee_left			knee_right			ankle_left			ankle_right			heel_left			heel_right			toe_left			toe_right			shoulder_left			shoulder_right			elbow_left			elbow_right			wrist_left			wrist_right			
		X1	Y1	Z1	X2	Y2	Z2	X3	Y3	Z3	X4	Y4	Z4	X5	Y5	Z5	X6	Y6	Z6	X7	Y7	Z7	X8	Y8	Z8	X9	Y9	Z9	X10	Y10	Z10	X11	Y11	Z11	X12	Y12	Z12	X13	Y13	Z13	X14	Y14	Z14	X15	Y15	Z15	X16	Y16	Z16	X17	Y17	Z17	X18	Y18	Z18	X19	Y19	Z19	
4204	42.03000	37.385262	931.579878	126.178381	13.778668	1487.666315	216.871908	-11.442688	1567.964780	364.143383	113.230528	935.228974	120.975108	-38.459522	927.930723	131.381699	154.556078	488.647176	51.709697	-80.193453	554.299787	393.712396	150.752649	150.380905	-184.417924	-114.020124	152.876431	373.812211	142.644606	123.647313	-234.300339	-115.506939	106.492173	342.150069	169.217498	13.223528	-59.785526	-124.910992	91.965000	547.059734	198.154958	1440.240210	194.447037	-153.614050	1433.702408	158.200440	287.377474	1160.191551	178.784927	-210.927083	1162.636718	41.752060	296.144645	934.001574	323.847723	-277.913066	897.789780	-13.968931
4205	42.04000	35.143609	931.530660	126.072376	11.161669	1487.218638	217.391589	-14.323092	1567.638798	364.682264	110.921508	935.081558	120.838522	-40.633807	927.979710	131.306273	152.642068	488.107165	48.985212	-80.269528	554.693261	395.177997	149.313145	155.614144	-194.863649	-113.274427	148.298775	384.293405	141.279956	130.269261	-245.327030	-114.931383	100.387050	353.358620	168.017068	15.076888	-74.326362	-123.283449	91.370157	561.994417	195.703100	1439.945383	195.563161	-156.058543	1433.171665	158.089498	284.972657	1160.060603	181.228042	-212.476147	1162.606797	37.785460	292.052200	935.179977	330.294251	-280.639081	896.730682	-23.845815
4206	42.05000	32.901956	931.481442	125.966371	8.544670	1486.770960	217.911270	-17.203496	1567.312816	365.221146	108.612489	934.934141	120.701936	-42.808093	928.028696	131.230848	150.728058	487.567154	46.260727	-80.345602	555.086734	396.643598	147.873641	160.847382	-205.309373	-112.528731	143.721119	394.774599	139.915307	136.891208	-256.353720	-114.355827	94.281926	364.567172	166.816637	16.930247	-88.867199	-121.655907	90.775313	576.929100	193.251242	1439.650557	196.679286	-158.503036	1432.640922	157.978556	282.567840	1159.929655	183.671157	-214.025210	1162.576876	33.818860	287.959755	936.358381	336.740780	-283.365096	895.671584	-33.722700
4207	42.06000	31.215159	931.740489	126.571489	6.876322	1486.928724	218.623400	-18.681872	1567.309119	366.048100	106.915104	935.038644	121.419168	-44.484374	928.442294	131.723847	150.275430	488.782660	50.820873	-81.002917	554.109952	393.529097	147.886413	165.286997	-207.357847	-112.314881	140.481816	395.292358	140.041274	142.273806	-259.038643	-114.252071	90.245110	365.416700	166.672776	18.514150	-93.349010	-120.706792	89.584006	579.894922	191.404740	1439.982122	197.078888	-160.210647	1432.740607	158.912819	280.716645	1160.085392	183.997676	-215.713856	1162.573606	34.633740	286.009787	936.534593	337.678129	-285.622245	894.976971	-33.700544
4208	42.07000	29.528363	931.999536	127.176607	5.207974	1487.086487	219.335529	-20.160248	1567.305421	366.875054	105.217719	935.143147	122.136400	-46.160655	928.855891	132.216847	149.822802	489.998166	55.381019	-81.660231	553.133170	390.414596	147.899184	169.726611	-209.406322	-112.101031	137.242512	395.810117	140.167241	147.656403	-261.723565	-114.148316	86.208294	366.266228	166.528915	20.098053	-97.830821	-119.757678	88.392699	582.860745	189.558239	1440.313687	197.478490	-161.918258	1432.840291	159.847082	278.865451	1160.241129	184.324196	-217.402503	1162.570335	35.448619	284.059820	936.710806	338.615478	-287.879395	894.282359	-33.678388
4209	42.08000	27.841566	932.258582	127.781725	3.539627	1487.244250	220.047659	-21.638623	1567.301723	367.702008	103.520334	935.247650	122.853632	-47.836936	929.269489	132.709846	149.370174	491.213672	59.941166	-82.317546	552.156388	387.300095	147.911956	174.166226	-211.454796	-111.887181	134.003208	396.327876	140.293208	153.039000	-264.408487	-114.044560	82.171478	367.115756	166.385054	21.681955	-102.312632	-118.808563	87.201391	585.826568	187.711737	1440.645252	197.878092	-163.625869	1432.939976	160.781345	277.014256	1160.396866	184.650715	-219.091149	1162.567064	36.263498	282.109852	936.887018	339.552826	-290.136544	893.587747	-33.656232
4210	42.09000	26.154770	932.517629	128.386844	1.871279	1487.402013	220.759789	-23.116999	1567.298026	368.528962	101.822950	935.352153	123.570864	-49.513217	929.683086	133.202846	148.917546	492.429178	64.501312	-82.974861	551.179607	384.185593	147.924728	178.605841	-213.503270	-111.673331	130.763905	396.845636	140.419175	158.421597	-267.093409	-113.940805	78.134662	367.965284	166.241193	23.265858	-106.794443	-117.859449	86.010084	588.792390	185.865235	1440.976817	198.277694	-165.333480	1433.039661	161.715608	275.163062	1160.552603	184.977234	-220.779796	1162.563794	37.078377	280.159885	937.063231	340.490175	-292.393693	892.893135	-33.634076
4211	42.10000	24.467973	932.776676	128.991962	0.202932	1487.559776	221.471918	-24.595374	1567.294328	369.355916	100.125565	935.456656	124.288097	-51.189498	930.096684	133.695845	148.464918	493.644684	69.061458	-83.632175	550.202825	381.071092	147.937499	183.045456	-215.551745	-111.459481	127.524601	397.363395	140.545143	163.804195	-269.778331	-113.837049	74.097846	368.814811	166.097332	24.849760	-111.276254	-116.910334	84.818777	591.758213	184.018733	1441.308382	198.677296	-167.041091	1433.139345	162.649871	273.311867	1160.708339	185.303754	-222.468442	1162.560523	37.893256	278.209917	937.239443	341.427524	-294.650842	892.198523	-33.611920
4212	42.11000	22.781177	933.035723	129.597080	-1.465416	1487.717540	222.184048	-26.073750	1567.290630	370.182870	98.428180	935.561159	125.005329	-52.865779	930.510281	134.188845	148.012290	494.860190	73.621604	-84.289490	549.226043	377.956591	147.950271	187.485071	-217.600219	-111.245631	124.285297	397.881154	140.671110	169.186792	-272.463253	-113.733294	70.061030	369.664339	165.953471	26.433663	-115.758065	-115.961220	83.627469	594.724035	182.172232	1441.639947	199.076898	-168.748702	1433.239030	163.584134	271.460673	1160.864076	185.630273	-224.157089	1162.557252	38.708136	276.259949	937.415656	342.364873	-296.907991	891.503911	-33.589764
4213	42.12000	21.094380	933.294769	130.202198	-3.133763	1487.875303	222.896178	-27.552125	1567.286933	371.009824	96.730796	935.665662	125.722561	-54.542060	930.923879	134.681844	147.559662	496.075697	78.181750	-84.946804	548.249261	374.842090	147.963043	191.924686	-219.648693	-111.031781	121.045994	398.398913	140.797077	174.569389	-275.148176	-113.629538	66.024214	370.513867	165.809610	28.017565	-120.239876	-115.012105	82.436162	597.689858	180.325730	1441.971512	199.476500	-170.456313	1433.338715	164.518397	269.609478	1161.019813	185.956792	-225.845735	1162.553982	39.523015	274.309982	937.591868	343.302222	-299.165140	890.809299	-33.567608
4214	42.13000	19.407584	933.553816	130.807316	-4.802111	1488.033066	223.608307	-29.030501	1567.283235	371.836778	95.033411	935.770165	126.439793	-56.218341	931.337476	135.174844	147.107034	497.291203	82.741896	-85.604119	547.272479	371.727588	147.975814	196.364301	-221.697167	-110.817931	117.806690	398.916672	140.923044	179.951986	-277.833098	-113.525782	61.987398	371.363395	165.665749	29.601468	-124.721687	-114.062991	81.244854	600.655680	178.479228	1442.303077	199.876102	-172.163923	1433.438399	165.452660	267.758284	1161.175550	186.283311	-227.534382	1162.550711	40.337894	272.360014	937.768081	344.239571	-301.422289	890.114686	-33.545452
4215	42.14000	17.720787	933.812863	131.412435	-6.470458	1488.190829	224.320437	-30.508876	1567.279537	372.663732	93.336026	935.874668	127.157025	-57.894622	931.751074	135.667843	146.654406	498.506709	87.302043	-86.261433	546.295697	368.613087	147.988586	200.803916	-223.745642	-110.604081	114.567386	399.434431	141.049011	185.334583	-280.518020	-113.422027	57.950583	372.212923	165.521887	31.185371	-129.203498	-113.113876	80.053547	603.621503	176.632726	1442.634642	200.275704	-173.871534	1433.538084	166.386923	265.907089	1161.331287	186.609831	-229.223028	1162.547440	41.152773	270.410046	937.944293	345.176920	-303.679438	889.420074	-33.523296
4216	42.15000	16.033991	934.071909	132.017553	-8.138806	1488.348592	225.032567	-31.987252	1567.275840	373.490687	91.638641	935.979171	127.874257	-59.570903	932.164671	136.160843	146.201778	499.722215	91.862189	-86.918748	545.318915	365.498586	148.001357	205.243531	-225.794116	-110.390231	111.328083	399.952190	141.174978	190.717181	-283.202942	-113.318271	53.913767	373.062451	165.378026	32.769273	-133.685309	-112.164762	78.862240	606.587325	174.786225	1442.966208	200.675306	-175.579145	1433.637769	167.321186	264.055894	1161.487024	186.936350	-230.911674	1162.544170	41.967652	268.460079	938.120506	346.114268	-305.936587	888.725462	-33.501140
4217	42.16000	13.189874	934.422735	132.062755	-11.239881	1488.625018	225.154139	-34.557885	1567.518999	373.715290	88.757805	936.200759	128.071900	-62.378301	932.644735	136.053602	144.152683	501.404609	99.491377	-88.773827	543.531829	358.944137	146.969171	208.183192	-216.987053	-110.410625	110.321812	391.267500	140.388909	193.749185	-274.209503	-113.217151	53.011758	364.361515	163.557771	36.541100	-125.327131	-111.746275	78.154928	597.477094	171.554142	1443.503434	199.743721	-179.011701	1433.481936	168.684014	260.806373	1161.929912	184.802646	-234.355928	1161.948783	46.704431	266.955479	938.159120	341.675397	-307.179139	889.525674	-24.198123
4218	42.17000	10.345757	934.773562	132.107957	-14.340956	1488.901444	225.275712	-37.128518	1567.762158	373.939893	85.876969	936.422347	128.269543	-65.185698	933.124800	135.946362	142.103587	503.087004	107.120565	-90.628907	541.744742	352.389688	145.936985	211.122852	-208.179990	-110.431019	109.315541	382.582811	139.602839	196.781189	-265.216063	-113.116030	52.109749	355.660580	161.737515	40.312927	-116.968952	-111.327789	77.447616	588.366862	168.322059	1444.040660	198.812136	-182.444256	1433.326102	170.046842	257.556851	1162.372800	182.668942	-237.800182	1161.353396	51.441209	265.450879	938.197734	337.236526	-308.421692	890.325887	-14.895106
4219	42.18000	7.501640	935.124388	132.153159	-17.442032	1489.177870	225.397285	-39.699152	1568.005317	374.164496	82.996133	936.643935	128.467186	-67.993095	933.604864	135.839122	140.054492	504.769398	114.749753	-92.483987	539.957656	345.835240	144.904799	214.062513	-199.372928	-110.451413	108.309271	373.898122	138.816770	199.813192	-256.222624	-113.014909	51.207740	346.959644	159.917259	44.084754	-108.610774	-110.909302	76.740304	579.256630	165.089977	1444.577886	197.880551	-185.876811	1433.170269	171.409669	254.307329	1162.815688	180.535238	-241.244436	1160.758010	56.177988	263.946280	938.236348	332.797655	-309.664244	891.126099	-5.592089
4220	42.19000	4.657523	935.475214	132.198362	-20.543107	1489.454295	225.518858	-42.269785	1568.248477	374.389099	80.115296	936.865522	128.664829	-70.800493	934.084928	135.731882	138.005396	506.451793	122.378941	-94.339066	538.170570	339.280791	143.872613	217.002174	-190.565865	-110.471807	107.303000	365.213433	138.030700	202.845196	-247.229185	-112.913789	50.305731	338.258709	158.097003	47.856581	-100.252596	-110.490816	76.032992	570.146398	161.857894	1445.115113	196.948967	-189.309366	1433.014436	172.772497	251.057808	1163.258576	178.401534	-244.688690	1160.162623	60.914766	262.441680	938.274962	328.358784	-310.906797	891.926311	3.710927
4221	42.20000	1.813406	935.826040	132.243564	-23.644182	1489.730721	225.640431	-44.840418	1568.491636	374.613702	77.234460	937.087110	128.862473	-73.607890	934.564993	135.624642	135.956300	508.134187	130.008129	-96.194146	536.383483	332.726342	142.840427	219.941835	-181.758802	-110.492201	106.296730	356.528743	137.244630	205.877200	-238.235745	-112.812668	49.403722	329.557773	156.276747	51.628408	-91.894417	-110.072329	75.325680	561.036166	158.625811	1445.652339	196.017382	-192.741922	1432.858603	174.135325	247.808286	1163.701464	176.267830	-248.132943	1159.567237	65.651545	260.937080	938.313576	323.919913	-312.149349	892.726523	13.013944
